<?xml version="1.0" encoding="UTF-8"?>
<svg version="1.1" xmlns="http://www.w3.org/2000/svg" width="856" height="652">
<path d="M0 0 C282.48 0 564.96 0 856 0 C856 215.16 856 430.32 856 652 C573.52 652 291.04 652 0 652 C0 436.84 0 221.68 0 0 Z " fill="#FEFEFE" transform="translate(0,0)"/>
<path d="M0 0 C4.17117747 3.90573891 7.38516785 8.11747087 10.625 12.8125 C11.40931396 13.93628052 11.40931396 13.93628052 12.20947266 15.08276367 C16.07444586 20.63071993 19.90306812 26.20411455 23.72436523 31.78222656 C27.34611517 37.06535904 31.01017651 42.31792769 34.6875 47.5625 C44.38811663 61.39921554 54.07033723 75.24945742 63.625 89.1875 C68.19101503 95.84769595 72.81551027 102.465849 77.45092773 109.07788086 C86.56252891 122.07696664 95.64933556 135.09408204 104.625 148.1875 C109.19101503 154.84769595 113.81551027 161.465849 118.45092773 168.07788086 C128.00048324 181.70177515 137.51327869 195.35133672 146.91870117 209.07519531 C151.17304015 215.2728547 155.49199291 221.42482067 159.80908203 227.57885742 C163.84524896 233.33715905 167.84263654 239.12040705 171.81640625 244.921875 C175.50967116 250.3056431 179.25056705 255.65523597 183 261 C187.19548171 266.98060027 191.37154239 272.97292616 195.5 279 C200.11019908 285.72832991 204.77900214 292.41430796 209.46142578 299.0925293 C215.98104617 308.39306797 222.4633168 317.7194559 228.94580078 327.04589844 C231.02373427 330.03413177 233.10340516 333.02114864 235.18359375 336.0078125 C241.49601302 345.07254161 247.80268508 354.14019672 254.0378418 363.25830078 C256.42887176 366.74584534 258.8511297 370.20844338 261.3046875 373.65234375 C262.13468262 374.81854248 262.13468262 374.81854248 262.98144531 376.00830078 C264.05289001 377.51042423 265.12760713 379.01022052 266.20605469 380.50732422 C266.68719727 381.18166504 267.16833984 381.85600586 267.6640625 382.55078125 C268.30529053 383.44277222 268.30529053 383.44277222 268.95947266 384.3527832 C270 386 270 386 271 389 C245.37155051 391.36425051 219.77861495 391.27711444 194.06293464 391.23213124 C187.77710489 391.22338744 181.49127847 391.22642452 175.20544434 391.22793579 C164.34941603 391.22897782 153.49341556 391.22284421 142.63739395 391.21146011 C131.26897185 391.19956962 119.90055947 391.19191692 108.5321312 391.18975449 C107.82161114 391.18961701 107.11109108 391.18947953 106.37904012 391.18933788 C102.7697258 391.18866109 99.16041147 391.18805837 95.55109714 391.18748413 C70.07816627 391.18329874 44.605248 391.16986745 19.13232422 391.15087891 C-5.59293552 391.13246916 -30.3181918 391.11832205 -55.04345703 391.10986328 C-55.80745598 391.10960023 -56.57145494 391.10933718 -57.35860538 391.10906615 C-65.03196432 391.1064288 -72.70532329 391.10387722 -80.37868228 391.10138843 C-96.00604594 391.09631789 -111.63340937 391.09067539 -127.26077271 391.08468628 C-128.33822662 391.08427441 -128.33822662 391.08427441 -129.43744727 391.08385422 C-177.29163687 391.06549589 -225.14581906 391.03376867 -273 391 C-271.19970676 387.13862098 -268.71887157 384.32043309 -265.8125 381.25 C-264.8053613 380.16855352 -263.7988493 379.08652307 -262.79296875 378.00390625 C-262.064729 377.22297607 -262.064729 377.22297607 -261.32177734 376.42626953 C-257.98701246 372.82787713 -254.80554324 369.09374906 -251.60205078 365.37890625 C-249.9648112 363.48095323 -248.32647183 361.58395736 -246.6875 359.6875 C-246.12337402 359.03450928 -245.55924805 358.38151855 -244.97802734 357.70874023 C-241.62256325 353.83642099 -238.21840487 350.02141684 -234.75 346.25 C-231.54374201 342.75414452 -228.48099847 339.18976734 -225.5 335.5 C-224.80308261 334.65428116 -224.10616522 333.80856231 -223.38812912 332.93721563 C-221.83305019 331.02458784 -220.31560394 329.08053435 -218.84375203 327.1031453 C-212.86664467 319.62136673 -212.86664467 319.62136673 -207.97753119 317.99388373 C-204.47825633 317.61648151 -201.12954688 317.58478283 -197.61105347 317.67720032 C-196.29168891 317.66780164 -194.97232435 317.65840297 -193.61297905 317.64871949 C-189.97431479 317.62426128 -186.33924989 317.66790754 -182.70104408 317.72327816 C-178.76935635 317.77097978 -174.83785596 317.7546925 -170.90596008 317.74635315 C-164.1017571 317.74059743 -157.29871833 317.77497757 -150.4948082 317.83696938 C-140.65782471 317.92653757 -130.82140162 317.95503221 -120.98405458 317.96883728 C-105.02225407 317.99288593 -89.06107348 318.06601762 -73.09960938 318.17016602 C-57.59866427 318.27120408 -42.0978878 318.34903262 -26.59667969 318.39575195 C-25.16238217 318.40008689 -25.16238217 318.40008689 -23.69910894 318.4045094 C-18.90192947 318.41886528 -14.10474881 318.43276596 -9.30756736 318.44644034 C30.46205571 318.56039229 70.23098686 318.75406428 110 319 C109.05595306 317.33759277 109.05595306 317.33759277 108.09283447 315.64160156 C107.73881687 315.01819885 107.38479927 314.39479614 107.02005386 313.75250244 C105.81201446 311.67703165 104.49706331 309.70954319 103.109375 307.75 C102.57328613 306.98905029 102.03719727 306.22810059 101.48486328 305.4440918 C100.9123584 304.6375415 100.33985352 303.83099121 99.75 303 C98.4918152 301.21510613 97.23401777 299.42993915 95.9765625 297.64453125 C95.32333008 296.71850098 94.67009766 295.7924707 93.99707031 294.83837891 C90.68748553 290.13456073 87.40652654 285.41091552 84.125 280.6875 C82.77998402 278.75257907 81.43493165 276.81768343 80.08984375 274.8828125 C79.41808105 273.91633789 78.74631836 272.94986328 78.05419922 271.95410156 C75.97626573 268.96586823 73.89659484 265.97885136 71.81640625 262.9921875 C65.59004131 254.05122124 59.37257959 245.10499962 53.21044922 236.11962891 C47.2131391 227.38359879 41.14553684 218.69623533 35.08935547 210.00097656 C33.02829201 207.04063629 30.96890457 204.07913819 28.91015625 201.1171875 C22.56079785 191.98308998 16.20175174 182.85624318 9.8125 173.75 C4.78392974 166.58078451 -0.17944458 159.36974582 -5.11279297 152.13476562 C-9.54283723 145.64681671 -14.03639287 139.20505537 -18.54980469 132.77490234 C-21.74005273 128.22937203 -24.92204469 123.67840064 -28.08984375 119.1171875 C-28.77796143 118.12686523 -29.4660791 117.13654297 -30.17504883 116.11621094 C-31.54616879 114.13962995 -32.91454849 112.16114495 -34.2800293 110.18066406 C-37.20797904 105.9461425 -40.15050062 101.74941913 -43.3046875 97.6796875 C-43.78776367 97.04659668 -44.27083984 96.41350586 -44.76855469 95.76123047 C-46.01775168 94.13925294 -47.29288832 92.53734115 -48.5703125 90.9375 C-50 88 -50 88 -49.6484375 84.8359375 C-47.63772394 79.44350216 -44.44945557 74.5397248 -41.5 69.625 C-40.54734253 68.01564575 -40.54734253 68.01564575 -39.57543945 66.3737793 C-38.30039493 64.22076127 -37.02221496 62.06959666 -35.74072266 59.92041016 C-33.91669192 56.86023405 -32.10820357 53.79136622 -30.30566406 50.71850586 C-29.1529163 48.75354914 -27.99655401 46.79075144 -26.83984375 44.828125 C-24.49290655 40.84193162 -22.15403988 36.8510287 -19.81640625 32.859375 C-19.44271408 32.22138474 -19.06902191 31.58339447 -18.68400574 30.92607117 C-17.17075864 28.34249777 -15.65751449 25.75892343 -14.14535522 23.17471313 C-1.40878103 1.40878103 -1.40878103 1.40878103 0 0 Z " fill="#020202" transform="translate(538,204)"/>
<path d="M0 0 C0.99 0 1.98 0 3 0 C4.83984375 1.94921875 4.83984375 1.94921875 6.9375 4.6875 C10.4578848 9.14665408 14.10765488 13.36310963 18 17.5 C22.43947596 22.23753019 26.59150922 27.12130135 30.65625 32.1875 C33.81172156 35.97406588 37.17146805 39.5489286 40.54101562 43.14428711 C44.59382698 47.49429596 48.36437871 52.00248455 52.0625 56.66015625 C53.92978268 58.91520126 55.8960177 60.96646354 58 63 C56.54805252 67.17243856 54.48758796 70.32365163 51.875 73.875 C50.97374519 75.11348211 50.07412644 76.35315576 49.17578125 77.59375 C48.6751416 78.2846875 48.17450195 78.975625 47.65869141 79.6875 C44.41086583 84.2155253 41.24076309 88.79801685 38.0625 93.375 C37.36898438 94.37297607 36.67546875 95.37095215 35.9609375 96.39916992 C31.64839237 102.61063587 27.35710552 108.83627295 23.08227539 115.07373047 C19.42190538 120.4062225 15.713916 125.70470368 12 131 C7.6710376 137.17615133 3.34743371 143.35569194 -0.9375 149.5625 C-1.34935547 150.15611328 -1.76121094 150.74972656 -2.18554688 151.36132812 C-4.76156049 155.10337037 -7.22763004 158.90633225 -9.66235352 162.74194336 C-10.28860123 163.72795029 -10.91484894 164.71395721 -11.56007385 165.72984314 C-12.03524948 166.4789949 -12.51042511 167.22814667 -13 168 C-12.11707747 167.97649428 -12.11707747 167.97649428 -11.21631813 167.95251369 C3.13980329 167.57624527 17.49548381 167.29537563 31.85544395 167.11919308 C38.80045545 167.03171023 45.74216685 166.91259238 52.68505859 166.7175293 C59.38986878 166.52924585 66.09055141 166.43109668 72.79811478 166.38708687 C75.35261537 166.35574337 77.90693429 166.29452484 80.45997238 166.20258904 C99.95017208 165.52884547 99.95017208 165.52884547 105.02024078 169.63692093 C108.35414744 173.62807362 110.35405277 178.01714597 112.14626503 182.86319637 C113.46278201 186.15829188 115.29340966 189.00432562 117.1875 192 C117.58501465 192.66169189 117.9825293 193.32338379 118.39208984 194.00512695 C118.72418457 194.55644287 119.0562793 195.10775879 119.3984375 195.67578125 C121.42721636 199.04653814 123.45251226 202.41937022 125.4765625 205.79296875 C126.10135498 206.83428955 126.72614746 207.87561035 127.36987305 208.94848633 C128.66357952 211.10553092 129.95671235 213.26291966 131.24926758 215.4206543 C134.34993146 220.59468902 137.45944145 225.76270244 140.59765625 230.9140625 C141.15219482 231.82776611 141.7067334 232.74146973 142.27807617 233.68286133 C143.31697666 235.39360848 144.35990031 237.1019211 145.4074707 238.80737305 C145.86855225 239.56832275 146.32963379 240.32927246 146.8046875 241.11328125 C147.40772705 242.10001831 147.40772705 242.10001831 148.02294922 243.10668945 C149.03291727 245.06378646 149.50171753 246.86391226 150 249 C148.86839951 248.99409222 147.73679901 248.98818443 146.57090759 248.98209763 C119.03724653 248.8410994 91.50406369 248.76908262 63.97003174 248.76940536 C50.65455169 248.76796424 37.34018035 248.7441063 24.02490234 248.66748047 C12.41938983 248.60075074 0.81468032 248.57607431 -10.79100895 248.60190511 C-16.93659156 248.6141144 -23.08051666 248.60526043 -29.2258606 248.5460434 C-35.0116002 248.49095602 -40.79461247 248.49214363 -46.58041954 248.53630638 C-48.70245138 248.54261933 -50.8246593 248.52845158 -52.94639015 248.49215889 C-64.24905586 247.90713837 -64.24905586 247.90713837 -73.95811462 252.59345245 C-76.0258706 255.65673513 -77.51862234 258.62263355 -79 262 C-80.11439506 263.68714657 -81.26092787 265.35413679 -82.45703125 266.984375 C-83.00617188 267.76554687 -83.5553125 268.54671875 -84.12109375 269.3515625 C-84.67925781 270.14304687 -85.23742187 270.93453125 -85.8125 271.75 C-90.07264923 277.81252006 -94.31389483 283.88610375 -98.5 290 C-102.52784986 295.87870395 -106.59668097 301.7274448 -110.6875 307.5625 C-121.71833417 323.29682931 -132.71017196 339.05847956 -143.56689453 354.91357422 C-145.21453383 357.31233494 -146.87092397 359.70495097 -148.52734375 362.09765625 C-149.72662475 363.83589455 -150.9258444 365.57417519 -152.125 367.3125 C-152.69436279 368.13202148 -153.26372559 368.95154297 -153.8503418 369.79589844 C-154.37668213 370.56063477 -154.90302246 371.32537109 -155.4453125 372.11328125 C-155.91469238 372.79173096 -156.38407227 373.47018066 -156.86767578 374.16918945 C-158.16377395 376.10787404 -158.16377395 376.10787404 -159 379 C-200.25 379 -241.5 379 -284 379 C-282.19349864 374.48374659 -280.59007645 371.92503164 -277.625 368.1875 C-276.71254217 367.02552376 -275.80112788 365.86272749 -274.890625 364.69921875 C-274.41431641 364.09255371 -273.93800781 363.48588867 -273.44726562 362.86083984 C-271.04598673 359.77336553 -268.71268662 356.63572855 -266.375 353.5 C-261.5582104 347.05462014 -256.69373527 340.64668854 -251.8125 334.25 C-245.09323846 325.4407538 -238.3847503 316.62763776 -231.83984375 307.6875 C-225.43783723 298.94896843 -218.9462771 290.30516732 -212.26000977 281.78198242 C-207.37298774 275.53110848 -202.65998055 269.16223436 -197.97314453 262.76049805 C-193.8877086 257.18552024 -189.71730477 251.69063851 -185.484375 246.2265625 C-182.66153348 242.57414195 -179.89178576 238.88247481 -177.125 235.1875 C-176.62355469 234.51783203 -176.12210937 233.84816406 -175.60546875 233.15820312 C-174.06969855 231.10592709 -172.53470089 229.05307578 -171 227 C-164.90637112 218.84813019 -158.80065079 210.70920576 -152.57983398 202.65380859 C-148.32966398 197.14493111 -144.16397654 191.57411753 -140 186 C-138.56291962 184.08301869 -137.12541375 182.16635628 -135.6875 180.25 C-133.19664374 176.93029728 -130.70749566 173.60936469 -128.22265625 170.28515625 C-122.48210752 162.61071779 -116.69633436 154.97353409 -110.86523438 147.36767578 C-105.64127956 140.54681741 -100.48563253 133.67581319 -95.34179688 126.79443359 C-93.3974071 124.19413067 -91.44868815 121.59708259 -89.5 119 C-88.78070313 118.0409375 -88.06140625 117.081875 -87.3203125 116.09375 C-85.6484375 113.86458333 -83.9765625 111.63541667 -82.3046875 109.40625 C-81.82918457 108.77219238 -81.35368164 108.13813477 -80.86376953 107.48486328 C-79.86234977 106.14974642 -78.86071848 104.8147882 -77.85888672 103.47998047 C-75.03113945 99.71171332 -72.208013 95.94008252 -69.390625 92.1640625 C-62.60971105 83.08537377 -55.75465939 74.07578347 -48.7734375 65.15014648 C-45.18721101 60.55554907 -41.71201727 55.90178328 -38.31640625 51.1640625 C-34.96177827 46.58185565 -31.50935528 42.07555523 -28.0625 37.5625 C-21.60365706 29.10993981 -21.60365706 29.10993981 -15.1875 20.625 C-14.51847656 19.73554688 -13.84945313 18.84609375 -13.16015625 17.9296875 C-11.45500951 15.61710151 -9.78141249 13.28986735 -8.12109375 10.9453125 C-7.62391846 10.24970215 -7.12674316 9.5540918 -6.61450195 8.83740234 C-5.63972252 7.47133708 -4.67305242 6.09943974 -3.71557617 4.72119141 C-2.54988856 3.09277343 -1.28205981 1.53847177 0 0 Z " fill="#010101" transform="translate(330,216)"/>
<path d="M0 0 C1.093125 0.00064453 2.18625 0.00128906 3.3125 0.00195312 C11.46879535 0.04638815 18.53990262 0.79713131 26.375 3.1875 C27.48488281 3.47753906 27.48488281 3.47753906 28.6171875 3.7734375 C38.3194173 6.40822834 47.57182845 10.80308691 55.375 17.1875 C55.375 17.8475 55.375 18.5075 55.375 19.1875 C56.695 19.5175 58.015 19.8475 59.375 20.1875 C58.46976787 24.3877771 56.47217906 27.76716461 54.3125 31.4375 C53.74692383 32.41203125 53.74692383 32.41203125 53.16992188 33.40625 C52.24265885 35.00255091 51.30941544 36.59537529 50.375 38.1875 C46.74863223 36.73695289 43.64800183 35.36973944 40.390625 33.1953125 C37.11258926 31.01278611 33.77041383 29.49489753 30.125 28.0625 C28.90296875 27.56492187 27.6809375 27.06734375 26.421875 26.5546875 C17.72638096 23.42625882 9.18163213 22.84693878 0 22.875 C-1.57007813 22.85083008 -1.57007813 22.85083008 -3.171875 22.82617188 C-24.3939376 22.81307184 -42.74256167 32.5535164 -57.625 47.1875 C-58.32496094 47.87457031 -59.02492188 48.56164062 -59.74609375 49.26953125 C-76.0077438 66.35535849 -80.30273044 86.90999664 -79.86328125 109.75390625 C-79.1864898 129.36085463 -67.98780291 147.49127182 -54.09375 160.82421875 C-53.6090625 161.27410156 -53.124375 161.72398437 -52.625 162.1875 C-52.955 163.1775 -53.285 164.1675 -53.625 165.1875 C-52.8825 165.455625 -52.14 165.72375 -51.375 166 C-48.75863446 167.12979421 -46.82312889 168.39643202 -44.625 170.1875 C-45.95988128 173.78141114 -47.58522723 176.94240696 -49.625 180.1875 C-64.08135381 178.11118347 -76.87248978 162.85232338 -85.625 152.1875 C-100.76710978 130.96538438 -106.23469543 106.32702799 -101.97265625 80.46875 C-96.5579991 54.47715591 -79.04117453 31.95592926 -57.2590332 17.55957031 C-48.88053817 12.11090956 -40.76234594 7.98363944 -31.1875 5.0625 C-29.99543945 4.68544922 -29.99543945 4.68544922 -28.77929688 4.30078125 C-26.40299467 3.56217471 -24.01976512 2.8637071 -21.625 2.1875 C-20.91279297 1.98374756 -20.20058594 1.77999512 -19.46679688 1.57006836 C-12.99002645 -0.08809664 -6.65508704 -0.07508709 0 0 Z " fill="#090909" transform="translate(430.625,59.8125)"/>
<path d="M0 0 C12.45674554 0.90594513 24.5666464 4.47903015 36.5 8 C37.31186768 8.23678467 38.12373535 8.47356934 38.96020508 8.7175293 C44.52389577 10.39809099 49.73137689 12.55831597 55 15 C56.155 15.495 57.31 15.99 58.5 16.5 C59.655 16.995 60.81 17.49 62 18 C62.6290625 18.26167969 63.258125 18.52335937 63.90625 18.79296875 C85.42657709 27.9872876 110.1794575 42.35891499 121 64 C122.6904811 69.4826414 123.19288842 75.87067389 121.12890625 81.28515625 C114.41284708 92.71346677 103.21560259 96.73599099 91 100 C90.32839844 100.18433594 89.65679688 100.36867188 88.96484375 100.55859375 C61.59276771 107.36205774 31.45629262 104.77302408 4.07177734 99.40429688 C1.84826927 98.97039051 -0.37802956 98.55385821 -2.60546875 98.140625 C-6.40527297 97.43548557 -10.20308795 96.72054455 -14 96 C-13.11645079 90.36356536 -10.61750857 86.03367033 -8 81 C-4.04 81 -0.08 81 4 81 C2.68 80.67 1.36 80.34 0 80 C1 74 1 74 1.5234375 71.4296875 C2.15892001 66.85629695 2.1842199 62.36181528 2.1875 57.75 C2.20586914 56.41388672 2.20586914 56.41388672 2.22460938 55.05078125 C2.23821042 48.80336906 1.45761235 43.06885943 0 37 C-0.39058594 35.35257813 -0.39058594 35.35257813 -0.7890625 33.671875 C-2.97638837 26.02645561 -6.19219325 19.64367491 -10.29296875 12.8984375 C-12 10 -12 10 -13 7 C0.17451524 11.17728532 0.17451524 11.17728532 3 15 C3 15.66 3 16.32 3 17 C3.99 16.67 4.98 16.34 6 16 C13.67463684 26.37341023 19.39084056 38.33554149 22 51 C22.185625 51.8971875 22.37125 52.794375 22.5625 53.71875 C23.13010644 57.9757983 23.14512208 62.14814258 23.125 66.4375 C23.13080078 67.66823242 23.13080078 67.66823242 23.13671875 68.92382812 C23.12906121 73.7212763 22.80222082 78.26944388 22 83 C21.01 83.33 20.02 83.66 19 84 C26.64957149 87.82478575 38.57561499 86.15249113 46.9375 86.125 C48.69610352 86.13080078 48.69610352 86.13080078 50.49023438 86.13671875 C66.64684011 86.17523037 66.64684011 86.17523037 82.3125 82.6875 C82.98692139 82.46529785 83.66134277 82.2430957 84.35620117 82.01416016 C93.55581328 78.96136451 93.55581328 78.96136451 101 73 C102.77601858 67.67194426 103.23552991 62.57563444 100.75390625 57.40234375 C84.99080803 33.84870737 51.28470278 19.33922413 25.56640625 9.9453125 C23.53120817 9.19566572 21.53696748 8.33498522 19.5625 7.4375 C14.82110106 5.52430394 9.95074414 4.2717697 5.01171875 2.96484375 C2 2 2 2 0 0 Z " fill="#0B0B0B" transform="translate(509,99)"/>
<path d="M0 0 C1.39375854 0.0163147 1.39375854 0.0163147 2.81567383 0.03295898 C14.66698371 0.30818439 22.33769572 2.97222655 31.6875 10.375 C27.88928699 14.17321301 24.46955652 15.36707975 19.171875 15.390625 C17.87765625 15.34421875 16.5834375 15.2978125 15.25 15.25 C9.48686693 15.130291 5.72633267 15.37387262 1.140625 18.97265625 C-2.67983733 22.6596078 -3.52315817 25.44317942 -3.8125 30.6875 C-3.5756192 39.06856832 0.79678038 43.80269766 6.6875 49.375 C8.74701746 52.46427618 9.21768384 53.77307609 9.6875 57.375 C9.77644531 58.04917969 9.86539063 58.72335938 9.95703125 59.41796875 C10.38087372 65.14477048 9.09491347 68.24834945 5.37890625 72.59375 C-0.31046259 78.5853255 -5.45737999 80.87310235 -13.3125 83.375 C1.37534156 83.91018451 15.05381993 82.15795594 26.96484375 72.53515625 C29.74147017 69.84938059 31.4522001 68.08089969 32.6875 64.375 C31.924375 65.385625 31.16125 66.39625 30.375 67.4375 C24.96228988 73.75018567 18.01045093 78.42030857 9.6875 79.375 C11.6465858 77.89480184 13.60973741 76.42978012 15.6171875 75.015625 C26.1410486 67.49254357 31.31423875 59.03239332 33.6875 46.375 C38.3075 46.375 42.9275 46.375 47.6875 46.375 C48.59460932 60.1112269 46.19754367 68.78290507 37.4375 79.8125 C33.22156128 84.2792726 27.96845869 87.31911071 22.6875 90.375 C32.22400353 88.55852314 39.763076 80.17180667 45.26953125 72.68359375 C49.03762598 66.54876183 50.843773 59.28897625 52.6875 52.375 C53.0175 52.375 53.3475 52.375 53.6875 52.375 C54.55256011 63.83704649 49.57235504 72.55330661 42.6875 81.375 C42.21441406 82.01308594 41.74132812 82.65117187 41.25390625 83.30859375 C34.2794515 92.17978406 22.8165246 99.24358451 11.6875 101.375 C7.91297778 101.68014654 4.16030972 101.69978199 0.375 101.6875 C-0.60662109 101.70361328 -1.58824219 101.71972656 -2.59960938 101.73632812 C-11.6233112 101.74230013 -19.32799904 99.82310112 -27.25 95.4375 C-28.14589844 94.95410156 -29.04179687 94.47070312 -29.96484375 93.97265625 C-32.36708018 92.33785641 -33.73137266 90.79104607 -35.3125 88.375 C-32.33600944 89.4573602 -29.91712655 90.63320307 -27.25 92.375 C-22.38176213 95.27430611 -16.84624436 95.68441778 -11.3125 96.375 C-12.00214844 96.15585938 -12.69179688 95.93671875 -13.40234375 95.7109375 C-21.62630991 92.93577197 -29.67278555 89.24073934 -35.3125 82.375 C-35.3125 81.715 -35.3125 81.055 -35.3125 80.375 C-34.57088623 80.03243164 -33.82927246 79.68986328 -33.06518555 79.33691406 C-29.70491248 77.77722922 -26.35248681 76.201347 -23 74.625 C-21.83275391 74.08617187 -20.66550781 73.54734375 -19.46289062 72.9921875 C-17.78549805 72.19941406 -17.78549805 72.19941406 -16.07421875 71.390625 C-15.04256592 70.90883789 -14.01091309 70.42705078 -12.94799805 69.93066406 C-10.21478173 68.31731951 -8.88808737 67.10641224 -7.3125 64.375 C-6.64583333 60.875 -6.64583333 60.875 -7.3125 57.375 C-10.09225143 54.43703529 -11.79528041 53.45555325 -15.81762695 52.82910156 C-17.13206787 52.8081543 -18.44650879 52.78720703 -19.80078125 52.765625 C-20.8555793 52.74082062 -20.8555793 52.74082062 -21.9316864 52.71551514 C-24.16288112 52.6671906 -26.3933952 52.6457009 -28.625 52.625 C-30.14391417 52.59682698 -31.66279684 52.56689768 -33.18164062 52.53515625 C-36.89177971 52.46143889 -40.6017898 52.41176795 -44.3125 52.375 C-44.73444228 40.51373377 -41.37629628 31.81770151 -33.62890625 22.703125 C-28.33930009 17.38675861 -22.39687617 12.92792835 -15.3125 10.375 C-25.05049254 12.79223219 -32.49677859 18.23299003 -38.3125 26.375 C-40.67413244 30.55327277 -42.62721837 34.88091566 -44.3125 39.375 C-44.6425 39.375 -44.9725 39.375 -45.3125 39.375 C-44.9065729 28.61793198 -39.02871793 20.31765754 -31.8046875 12.66796875 C-22.4182488 4.03185666 -12.6387923 -0.19996281 0 0 Z " fill="#070707" transform="translate(427.3125,108.625)"/>
<path d="M0 0 C6.35219042 0.54881057 12.67873638 1.16511613 19 2 C11.60439986 21.66318331 -5.97180748 37.08778177 -24.625 45.875 C-39.38658469 52.51458123 -52.78561677 55.35261894 -68.9375 55.3125 C-70.23107422 55.32861328 -71.52464844 55.34472656 -72.85742188 55.36132812 C-80.71331611 55.36530579 -87.55791375 54.55879198 -95 52 C-92.93404746 46.49364142 -90.64816722 41.75784421 -86 38 C-81.46071963 36.82505718 -77.1010263 36.97676605 -72.4375 37.125 C-69.9101189 37.11756082 -67.38274764 37.10204143 -64.85546875 37.078125 C-63.05988525 37.07135742 -63.05988525 37.07135742 -61.22802734 37.06445312 C-42.09785493 36.68248629 -23.73109337 26.37885242 -10.0625 13.5 C-6.20397724 9.39539798 -3.10229958 4.68645256 0 0 Z " fill="#090A09" transform="translate(499,199)"/>
<path d="M0 0 C5.11599807 0.05964246 7.9530935 0.7354891 11.8125 4.3125 C15.96987208 9.70584756 17.2375899 14.16364609 17.16015625 20.8671875 C16.35950172 26.49875755 13.28251337 30.94748759 9.1875 34.75 C8.40375 35.265625 7.62 35.78125 6.8125 36.3125 C5.8225 36.9725 4.8325 37.6325 3.8125 38.3125 C1.58718872 38.57992554 1.58718872 38.57992554 -1.03857422 38.60302734 C-2.02324677 38.61578705 -3.00791931 38.62854675 -4.02243042 38.64169312 C-5.61621017 38.64503159 -5.61621017 38.64503159 -7.2421875 38.6484375 C-8.33588654 38.6550943 -9.42958557 38.6617511 -10.556427 38.66860962 C-12.87142249 38.67874039 -15.18644721 38.68342651 -17.50146484 38.68310547 C-21.04183164 38.68747449 -24.58094794 38.72377982 -28.12109375 38.76171875 C-30.3697874 38.76758761 -32.61848698 38.77155654 -34.8671875 38.7734375 C-35.92565887 38.78780853 -36.98413025 38.80217957 -38.07467651 38.81698608 C-45.41432907 38.77141208 -45.41432907 38.77141208 -49.39501953 36.40869141 C-51.1875 34.3125 -51.1875 34.3125 -51.1875 32.3125 C-51.8475 32.3125 -52.5075 32.3125 -53.1875 32.3125 C-53.69524869 27.40426269 -53.8426111 25.29516665 -51.0625 21.125 C-46.9802863 17.55306301 -41.90506055 16.25252246 -36.83203125 14.58984375 C-32.44176514 13.05113312 -28.47582708 11.01441791 -24.359375 8.8671875 C-20.00244876 6.73164976 -15.52369861 4.97235808 -10.99829102 3.22875977 C-2.83921744 0.07280045 -2.83921744 0.07280045 0 0 Z " fill="#0D0D0D" transform="translate(483.1875,112.6875)"/>
<path d="M0 0 C2.12797272 -0.0021798 4.25541954 -0.02039105 6.38330078 -0.03930664 C17.79294637 -0.08563504 28.6429418 1.28611428 39.89501953 3.18530273 C39.89501953 3.51530273 39.89501953 3.84530273 39.89501953 4.18530273 C39.30938232 4.19988525 38.72374512 4.21446777 38.12036133 4.22949219 C-8.36769096 4.37893296 -8.36769096 4.37893296 -48.97998047 23.87280273 C-51.76626319 28.21612579 -52.107472 31.16449098 -51.10498047 36.18530273 C-44.44237678 54.87390608 -22.42625403 67.83916756 -6.02148438 77.1027832 C-3.98312158 78.2541336 -1.95609924 79.42405959 0.07080078 80.59545898 C6.87426585 84.50192412 13.62563258 88.19966167 20.89501953 91.18530273 C16.33525577 92.654012 12.96841083 91.11061566 8.64501953 89.49780273 C7.91927734 89.24063477 7.19353516 88.9834668 6.44580078 88.71850586 C2.01562743 87.11148219 -2.1613383 85.22291046 -6.34960938 83.06689453 C-8.40793287 82.03315237 -10.50191828 81.21697896 -12.66748047 80.43530273 C-33.3894902 72.26056495 -58.56473402 57.68917004 -68.25341797 36.69702148 C-69.91471821 31.79694785 -70.29337061 26.74734535 -68.07763672 21.97045898 C-62.25910744 13.57308016 -53.47402015 9.4911506 -44.10498047 6.18530273 C-43.35216797 5.9081543 -42.59935547 5.63100586 -41.82373047 5.34545898 C-28.24576958 0.54058198 -14.27165382 -0.00162807 0 0 Z " fill="#101010" transform="translate(300.10498046875,90.814697265625)"/>
<path d="M0 0 C0.226875 -0.639375 0.45375 -1.27875 0.6875 -1.9375 C2.48565826 -6.13320261 4.73904021 -10.03900556 7 -14 C8.65 -13.67 10.3 -13.34 12 -13 C11.09476787 -8.7997229 9.09717906 -5.42033539 6.9375 -1.75 C6.37192383 -0.77546875 6.37192383 -0.77546875 5.79492188 0.21875 C4.86765885 1.81505091 3.93441544 3.40787529 3 5 C-0.62636777 3.54945289 -3.72699817 2.18223944 -6.984375 0.0078125 C-10.26241074 -2.17471389 -13.60458617 -3.69260247 -17.25 -5.125 C-19.08304688 -5.87136719 -19.08304688 -5.87136719 -20.953125 -6.6328125 C-29.64861904 -9.76124118 -38.19336787 -10.34056122 -47.375 -10.3125 C-48.94507813 -10.33666992 -48.94507813 -10.33666992 -50.546875 -10.36132812 C-71.7689376 -10.37442816 -90.11756167 -0.6339836 -105 14 C-105.69996094 14.68707031 -106.39992188 15.37414062 -107.12109375 16.08203125 C-123.3827438 33.16785849 -127.67773044 53.72249664 -127.23828125 76.56640625 C-126.5614898 96.17335463 -115.36280291 114.30377182 -101.46875 127.63671875 C-100.9840625 128.08660156 -100.499375 128.53648437 -100 129 C-100.66 129.66 -101.32 130.32 -102 131 C-114.84641938 120.40048287 -123.21913916 108.65809327 -129 93 C-129.32742188 92.13117188 -129.65484375 91.26234375 -129.9921875 90.3671875 C-136.69698618 71.52989597 -134.13534417 49.58080454 -125.8125 31.8125 C-114.09173543 9.67050127 -94.85930771 -6.05029987 -70.9921875 -13.52734375 C-45.46739315 -19.58322633 -21.77567217 -13.36518311 0 0 Z " fill="#C1C0C1" transform="translate(478,93)"/>
<path d="M0 0 C2.00958663 0.63718601 4.00736409 1.31163487 6 2 C7.7325 2.556875 7.7325 2.556875 9.5 3.125 C19.0783306 8.25624853 23.88975827 20.86631546 27.296875 30.76953125 C29.81721353 39.34416124 31.18221109 47.45408479 31.125 56.375 C31.12234131 57.11943359 31.11968262 57.86386719 31.11694336 58.63085938 C30.99295662 73.00704338 30.99295662 73.00704338 29 75 C27.0595464 74.93541607 25.12130184 74.79803668 23.1875 74.625 C22.12917969 74.53476563 21.07085938 74.44453125 19.98046875 74.3515625 C17.55629337 74.06561783 15.34052993 73.66872284 13 73 C14 67 14 67 14.5234375 64.4296875 C15.15892001 59.85629695 15.1842199 55.36181528 15.1875 50.75 C15.19974609 49.85925781 15.21199219 48.96851563 15.22460938 48.05078125 C15.23821042 41.80336906 14.45761235 36.06885943 13 30 C12.60941406 28.35257813 12.60941406 28.35257813 12.2109375 26.671875 C10.02361163 19.02645561 6.80780675 12.64367491 2.70703125 5.8984375 C1 3 1 3 0 0 Z " fill="#0A0A0A" transform="translate(496,106)"/>
<path d="M0 0 C4.99505488 1.99978388 9.00442613 5.01932633 11.3671875 9.92578125 C13.03549008 15.39410638 13.00570731 20.50984116 10.859375 25.82421875 C8.71583017 29.68824035 6.72625183 32.4512764 3.1875 35.125 C-1.50145181 36.41216324 -6.33795938 37.45202215 -10.8046875 35.015625 C-14.97421075 31.65511373 -17.95814446 28.25497314 -19 23 C-19.46906599 17.47886259 -19.77241381 12.6339523 -17.375 7.5625 C-11.89483841 1.64969408 -8.22376643 -1.7115453 0 0 Z " fill="#0D0D0D" transform="translate(374,160)"/>
<path d="M0 0 C-3.94799013 1.31599671 -5.66459827 0.30064665 -9.625 -0.9375 C-16.99531046 -2.99244839 -24.11818089 -3.41986798 -31.75 -3.4375 C-32.77818848 -3.4470874 -33.80637695 -3.4566748 -34.86572266 -3.46655273 C-55.95114699 -3.2391576 -74.2053521 6.45234121 -89 21 C-89.69996094 21.68707031 -90.39992188 22.37414062 -91.12109375 23.08203125 C-107.3827438 40.16785849 -111.67773044 60.72249664 -111.23828125 83.56640625 C-110.7154646 98.71263639 -103.91659843 111.992107 -95 124 C-95.33 124.66 -95.66 125.32 -96 126 C-109.2002012 112.7997988 -115.42738055 92.58444336 -115.5 74.3125 C-115.17870991 54.49745837 -109.44509415 38.44994585 -97 23 C-96.49339844 22.31808594 -95.98679687 21.63617188 -95.46484375 20.93359375 C-88.05951417 11.55856014 -76.13183282 3.21919818 -65 -1 C-63.77925781 -1.46277344 -62.55851562 -1.92554687 -61.30078125 -2.40234375 C-41.52281113 -9.17682434 -19.213632 -8.00267599 0 0 Z " fill="#181818" transform="translate(462,86)"/>
<path d="M0 0 C0.99 0 1.98 0 3 0 C1.01292877 13.85982183 -13.41067395 27.76721442 -24 36 C-28.23379641 38.85175325 -32.58211263 41.44582115 -37 44 C-37.73605469 44.47308594 -38.47210938 44.94617188 -39.23046875 45.43359375 C-53.20778881 54.11196849 -71.13253448 56.12560512 -87.1875 56.25 C-88.55974731 56.2641394 -88.55974731 56.2641394 -89.9597168 56.27856445 C-96.18210499 56.2488352 -101.94850119 55.43542238 -108 54 C-108 53.67 -108 53.34 -108 53 C-107.18958252 53.01047363 -106.37916504 53.02094727 -105.54418945 53.03173828 C-102.47079568 53.06629291 -99.39750248 53.09112454 -96.32397461 53.10986328 C-94.36630582 53.1245951 -92.40872682 53.15003698 -90.45117188 53.17578125 C-78.89798765 53.23457608 -67.94883895 52.11316337 -57 48.3125 C-55.85700439 47.92058472 -55.85700439 47.92058472 -54.69091797 47.52075195 C-31.45677913 39.267482 -14.84025884 23.50420981 -2 3 C-1.34 2.01 -0.68 1.02 0 0 Z " fill="#171818" transform="translate(520,202)"/>
<path d="M0 0 C3.54732193 0.92906051 5.19330871 2.4327423 7.44921875 5.2890625 C9.84581337 10.17779704 9.43791402 15.41710747 8.625 20.6875 C7.27909477 24.039801 5.16952688 26.14297312 2.625 28.6875 C0.3125 29.1875 0.3125 29.1875 -2.375 28.6875 C-6.23252225 25.35600352 -7.64963161 22.86589669 -8.3125 17.8125 C-8.61033011 11.99605323 -8.07320231 7.02984802 -4.5625 2.1875 C-2.375 0.6875 -2.375 0.6875 0 0 Z " fill="#F5F5F5" transform="translate(484.375,116.3125)"/>
<path d="M0 0 C4.69657003 4.09912649 7.05147375 8.49430586 9.625 14.125 C10.01816406 14.9708667 10.41132812 15.8167334 10.81640625 16.68823242 C13.52873215 22.64998411 15.78422563 28.54119866 17 35 C17.18304687 35.89203125 17.36609375 36.7840625 17.5546875 37.703125 C18.13050661 41.96620681 18.14515439 46.14125663 18.125 50.4375 C18.13080078 51.66823242 18.13080078 51.66823242 18.13671875 52.92382812 C18.12911713 57.68624414 18.04786276 62.33279517 17 67 C11.04846651 70.967689 3.77523187 68.73863232 -2.875 67.4375 C-3.57625 67.293125 -4.2775 67.14875 -5 67 C-5 66.67 -5 66.34 -5 66 C0.34902924 65.40801257 5.60884846 64.85812759 11 65 C14.35741976 41.91773915 9.85592476 21.45924282 -1 1 C-0.67 0.67 -0.34 0.34 0 0 Z " fill="#B4B4B4" transform="translate(514,115)"/>
<path d="M0 0 C1.98 0 3.96 0 6 0 C5.67 0.99 5.34 1.98 5 3 C5 2.34 5 1.68 5 1 C0.96287218 2.34570927 -0.05348542 4.9576991 -2.125 8.4375 C-6.14758958 14.94209531 -10.6679589 20.49884565 -16 26 C-16.5259375 26.59941406 -17.051875 27.19882813 -17.59375 27.81640625 C-28.50700475 39.81541848 -44.51748221 47.21069729 -59.75 51.8125 C-60.77746338 52.12344604 -60.77746338 52.12344604 -61.82568359 52.44067383 C-71.45438136 55.18132718 -81.13602674 55.18642922 -91.07617188 55.18530273 C-93.25930726 55.18750941 -95.44195223 55.20578157 -97.625 55.22460938 C-99.02603996 55.22754063 -100.42708229 55.22952722 -101.828125 55.23046875 C-103.0852832 55.23457764 -104.34244141 55.23868652 -105.63769531 55.24291992 C-108.93733264 55.00452759 -111.14626332 54.66775535 -114 53 C-114.8125 50.875 -114.8125 50.875 -115 49 C-114.30414795 49.21148682 -113.6082959 49.42297363 -112.89135742 49.64086914 C-104.61167033 51.95706045 -96.88506705 52.50746229 -88.3125 52.4375 C-87.32413147 52.43194092 -87.32413147 52.43194092 -86.3157959 52.42626953 C-60.08332966 52.21660041 -36.93652129 42.86884225 -17.671875 24.7734375 C-10.58136041 17.41340043 -4.51304352 9.19235707 0 0 Z " fill="#C9CACA" transform="translate(518,201)"/>
<path d="M0 0 C0.33 0.66 0.66 1.32 1 2 C-0.13105573 2.00238835 -1.26211145 2.00477671 -2.4274416 2.00723743 C-29.91764867 2.06596851 -57.40776764 2.14181152 -84.89787769 2.23571491 C-98.19176611 2.28072714 -111.48560266 2.32012918 -124.77954102 2.34643555 C-136.36323984 2.36937176 -147.94685324 2.40272054 -159.53048438 2.44870156 C-165.66690486 2.47269293 -171.80324044 2.49138288 -177.9397068 2.49761391 C-183.71069024 2.50363807 -189.48145625 2.52354075 -195.25235939 2.55427551 C-197.37482192 2.56309871 -199.4973128 2.56676954 -201.61979294 2.56500816 C-204.50917842 2.56336686 -207.39789199 2.57995648 -210.28718567 2.60127258 C-211.13445577 2.59642501 -211.98172587 2.59157743 -212.85467082 2.58658296 C-217.14630242 2.50054289 -217.14630242 2.50054289 -220.73781031 4.52404755 C-221.15433291 5.01111186 -221.57085551 5.49817617 -222 6 C-222.66 5.67 -223.32 5.34 -224 5 C-223.04692364 3.03243637 -223.04692364 3.03243637 -221 1 C-217.96469193 0.59656522 -215.28802423 0.45331194 -212.2492218 0.48101807 C-211.34419346 0.47351681 -210.43916511 0.46601556 -209.50671166 0.458287 C-206.46168253 0.43792094 -203.41739169 0.44612999 -200.37231445 0.45410156 C-198.1945522 0.44537141 -196.01679636 0.43488759 -193.83905029 0.42277527 C-187.91581245 0.39482649 -181.99278299 0.39151255 -176.06948876 0.39249516 C-169.88345139 0.38937368 -163.69750893 0.36377147 -157.51152039 0.34051514 C-145.792478 0.29989289 -134.07349134 0.27959979 -122.35438937 0.26654124 C-109.01473842 0.25101125 -95.67519187 0.21228554 -82.33559477 0.17194796 C-54.89042841 0.08946381 -27.44526458 0.03542493 0 0 Z " fill="#BFBFBF" transform="translate(480,464)"/>
<path d="M0 0 C13.98283069 -1.0966926 28.58728868 6.39152579 40 14 C40.3403125 13.0409375 40.3403125 13.0409375 40.6875 12.0625 C42.48565826 7.86679739 44.73904021 3.96099444 47 0 C49.475 0.495 49.475 0.495 52 1 C51.09476787 5.2002771 49.09717906 8.57966461 46.9375 12.25 C46.56044922 12.8996875 46.18339844 13.549375 45.79492188 14.21875 C44.86765885 15.81505091 43.93441544 17.40787529 43 19 C38.23164362 17.02068226 34.31614104 14.87742736 30 12 C28.7399778 11.43363951 27.46870481 10.89165693 26.1875 10.375 C23 9 23 9 22 7 C14.89382597 4.29288608 7.44136929 2.51349884 0 1 C0 0.67 0 0.34 0 0 Z " fill="#C5C5C5" transform="translate(438,79)"/>
<path d="M0 0 C1.15371094 0.00322266 2.30742187 0.00644531 3.49609375 0.00976562 C4.68589844 0.01814453 5.87570312 0.02652344 7.1015625 0.03515625 C8.92107422 0.04192383 8.92107422 0.04192383 10.77734375 0.04882812 C13.76046757 0.06057271 16.74348929 0.07699785 19.7265625 0.09765625 C16.499245 2.24920125 15.55307844 2.35350751 11.82421875 2.40625 C10.85718018 2.42913086 9.8901416 2.45201172 8.89379883 2.47558594 C7.35695435 2.50507324 7.35695435 2.50507324 5.7890625 2.53515625 C-2.57633852 2.80615266 -10.32631328 3.25092519 -18.2734375 6.09765625 C-19.26085937 6.44828125 -20.24828125 6.79890625 -21.265625 7.16015625 C-39.13795848 14.07261093 -52.10080505 25.90546938 -63.2734375 41.09765625 C-63.6034375 40.43765625 -63.9334375 39.77765625 -64.2734375 39.09765625 C-51.36769192 20.28410343 -32.50504264 4.97333186 -9.54101562 0.57421875 C-6.30335087 0.10201899 -3.26936767 -0.01618499 0 0 Z " fill="#B5B5B5" transform="translate(421.2734375,77.90234375)"/>
<path d="M0 0 C0.33 0.66 0.66 1.32 1 2 C1.66 2 2.32 2 3 2 C2.98428955 2.8156543 2.9685791 3.63130859 2.95239258 4.47167969 C2.90063225 7.55808062 2.86334786 10.64425715 2.83520508 13.73095703 C2.8130657 15.69969568 2.77490648 17.66823362 2.73632812 19.63671875 C2.64837359 31.18808064 4.46089984 41.08005975 9.875 51.3125 C10.20113281 51.96283203 10.52726562 52.61316406 10.86328125 53.28320312 C13.20101738 57.83587602 15.94978416 61.89230516 19 66 C18.67 66.66 18.34 67.32 18 68 C5.5672051 55.5672051 -1.12352409 36.17462088 -1.3828125 18.85766602 C-1.35082252 6.1326523 -1.35082252 6.1326523 0 0 Z " fill="#2A2A2A" transform="translate(348,144)"/>
<path d="M0 0 C3.25498239 2.69925369 4.77527285 6.2381087 6.5 10 C6.80824707 10.66700928 7.11649414 11.33401855 7.43408203 12.02124023 C9.91715344 17.53513883 11.77782453 23.06774832 13 29 C13.2784375 30.34578125 13.2784375 30.34578125 13.5625 31.71875 C14.13010644 35.9757983 14.14512208 40.14814258 14.125 44.4375 C14.12886719 45.25798828 14.13273438 46.07847656 14.13671875 46.92382812 C14.12906121 51.7212763 13.80222082 56.26944388 13 61 C11.68 61 10.36 61 9 61 C9.24169922 59.53626953 9.24169922 59.53626953 9.48828125 58.04296875 C12.12416346 39.47049603 8.85924286 20.55050732 0.734375 3.70703125 C0 2 0 2 0 0 Z " fill="#4B4B4B" transform="translate(518,121)"/>
<path d="M0 0 C-3.94799013 1.31599671 -5.66459827 0.30064665 -9.625 -0.9375 C-16.99531046 -2.99244839 -24.11818089 -3.41986798 -31.75 -3.4375 C-32.77818848 -3.4470874 -33.80637695 -3.4566748 -34.86572266 -3.46655273 C-43.34478846 -3.3751105 -52.02763123 -2.25711386 -59.625 1.75 C-60.40875 2.1625 -61.1925 2.575 -62 3 C-62.66 2.67 -63.32 2.34 -64 2 C-63.67 1.34 -63.34 0.68 -63 0 C-63.66 -0.33 -64.32 -0.66 -65 -1 C-43.80224119 -8.66843988 -20.9075571 -8.70821328 0 0 Z " fill="#313131" transform="translate(462,86)"/>
<path d="M0 0 C1.4540625 0.0309375 1.4540625 0.0309375 2.9375 0.0625 C2.39609375 0.75472656 2.39609375 0.75472656 1.84375 1.4609375 C-2.0996804 7.00364801 -3.05452849 11.33530678 -2.0625 18.0625 C-1.25696895 21.15189463 -0.26258608 24.10514502 0.9375 27.0625 C-2.71643872 26.14901532 -4.01340674 25.12486171 -6.375 22.125 C-8.83448962 17.32648556 -8.87625253 12.31633916 -8.0625 7.0625 C-6.30571016 3.02109557 -4.52691331 0.09238599 0 0 Z " fill="#E9E9E9" transform="translate(367.0625,164.9375)"/>
<path d="M0 0 C0.515625 0.37125 1.03125 0.7425 1.5625 1.125 C-7.63356938 6.49326385 -20.544606 6.40762813 -30.875 6.4375 C-31.77331543 6.44281738 -32.67163086 6.44813477 -33.59716797 6.45361328 C-39.73772123 6.38909503 -45.46357379 5.5279371 -51.4375 4.125 C-51.4375 3.795 -51.4375 3.465 -51.4375 3.125 C-50.62708252 3.13547363 -49.81666504 3.14594727 -48.98168945 3.15673828 C-45.90829568 3.19129291 -42.83500248 3.21612454 -39.76147461 3.23486328 C-37.80380582 3.2495951 -35.84622682 3.27503698 -33.88867188 3.30078125 C-24.22182665 3.34997639 -14.63018699 2.89745037 -5.375 -0.125 C-2.4375 -0.875 -2.4375 -0.875 0 0 Z " fill="#363636" transform="translate(463.4375,251.875)"/>
<path d="M0 0 C1.98 0 3.96 0 6 0 C5.67 0.99 5.34 1.98 5 3 C5 2.34 5 1.68 5 1 C0.96287218 2.34570927 -0.05348542 4.9576991 -2.125 8.4375 C-6.1468086 14.94083244 -10.66327603 20.50456305 -16 26 C-16.54914063 26.61101562 -17.09828125 27.22203125 -17.6640625 27.8515625 C-21.30441723 31.77884174 -25.40101458 34.90700253 -29.75 38 C-30.31750977 38.41064697 -30.88501953 38.82129395 -31.46972656 39.24438477 C-33.109375 40.375 -33.109375 40.375 -36 42 C-36.99 41.67 -37.98 41.34 -39 41 C-37.65808594 40.07380859 -37.65808594 40.07380859 -36.2890625 39.12890625 C-21.0453533 28.50443875 -8.31049406 16.92716421 0 0 Z " fill="#D2D2D3" transform="translate(518,201)"/>
<path d="M0 0 C0.99 0 1.98 0 3 0 C2.59653148 8.06937041 -3.32914996 13.76536919 -9 19 C-13.12967747 22.67082442 -17.87043178 25.89630067 -23 28 C-23.99 27.67 -24.98 27.34 -26 27 C-25.26394531 26.54109375 -24.52789062 26.0821875 -23.76953125 25.609375 C-22.79371094 24.99578125 -21.81789063 24.3821875 -20.8125 23.75 C-19.84957031 23.14671875 -18.88664062 22.5434375 -17.89453125 21.921875 C-9.53086414 16.36867092 -4.08875351 9.13956667 0 0 Z " fill="#E2E2E2" transform="translate(473,173)"/>
<path d="M0 0 C0.66 0.66 1.32 1.32 2 2 C1.67386719 2.60585937 1.34773438 3.21171875 1.01171875 3.8359375 C-2.08280026 9.76938102 -4.33418214 15.52531172 -6 22 C-6.19464844 22.69351563 -6.38929688 23.38703125 -6.58984375 24.1015625 C-8.42944025 31.27196054 -8.63136052 38.63691142 -9 46 C-9.33 46 -9.66 46 -10 46 C-11.97269041 28.48165146 -8.47470762 15.44967765 0 0 Z " fill="#AEADAE" transform="translate(356,118)"/>
<path d="M0 0 C-0.88300781 0.54527344 -1.76601563 1.09054688 -2.67578125 1.65234375 C-16.21693684 10.11011274 -26.53537023 19.13030033 -36 32 C-36.33 31.34 -36.66 30.68 -37 30 C-29.40647399 18.93041848 -21.33790014 10.25250802 -10 3 C-9.31292969 2.55269531 -8.62585938 2.10539062 -7.91796875 1.64453125 C-3.40948117 -1.13649372 -3.40948117 -1.13649372 0 0 Z " fill="#C2C2C3" transform="translate(394,87)"/>
<path d="M0 0 C2.97649056 1.0823602 5.39537345 2.25820307 8.0625 4 C12.93073787 6.89930611 18.46625564 7.30941778 24 8 C24 7.67 24 7.34 24 7 C28.8333472 6.91666643 33.23692563 7.04738513 38 8 C35.26423034 10.73576966 33.44099685 10.36098107 29.625 10.5625 C25.2706192 10.72741181 25.2706192 10.72741181 21.03881836 11.60986328 C18.50678412 12.09437899 17.49951319 11.62988586 15.21484375 10.48828125 C14.51939453 10.14216797 13.82394531 9.79605469 13.10742188 9.43945312 C12.39134766 9.06755859 11.67527344 8.69566406 10.9375 8.3125 C9.85758789 7.78366211 9.85758789 7.78366211 8.75585938 7.24414062 C4.97726386 5.32502108 2.19489923 3.78342552 0 0 Z " fill="#4E4F4E" transform="translate(392,197)"/>
<path d="M0 0 C2.33808534 2.33808534 2.24920039 2.95754618 2.625 6.125 C3.5603552 11.26571218 5.4855794 15.55618776 7.8125 20.1875 C8.1439502 20.85217285 8.47540039 21.5168457 8.81689453 22.20166016 C11.17963107 26.7782547 13.92820798 30.86675105 17 35 C16.67 35.66 16.34 36.32 16 37 C7.49575093 28.49575093 0.55607973 14.98838892 -1 3 C-0.67 2.01 -0.34 1.02 0 0 Z " fill="#464646" transform="translate(350,175)"/>
<path d="M0 0 C1 3 1 3 0.3203125 4.76171875 C-5.34303672 13.88600361 -13.48192845 21.08362562 -24 24 C-26.828125 23.62109375 -26.828125 23.62109375 -29 23 C-29 22.34 -29 21.68 -29 21 C-28.40574219 20.93683594 -27.81148438 20.87367188 -27.19921875 20.80859375 C-17.98152697 19.44672638 -10.16953331 15.27390589 -4.4375 7.8125 C-2.71792655 5.30712741 -1.31695486 2.7370813 0 0 Z " fill="#B9B9BA" transform="translate(462,167)"/>
<path d="M0 0 C0.99 0 1.98 0 3 0 C2.09476787 4.2002771 0.09717906 7.57966461 -2.0625 11.25 C-2.43955078 11.8996875 -2.81660156 12.549375 -3.20507812 13.21875 C-4.13234115 14.81505091 -5.06558456 16.40787529 -6 18 C-6.99 17.01 -7.98 16.02 -9 15 C-7.68944504 12.68637791 -6.3766597 10.37407322 -5.0625 8.0625 C-4.50272461 7.0734668 -4.50272461 7.0734668 -3.93164062 6.06445312 C-1.11328125 1.11328125 -1.11328125 1.11328125 0 0 Z " fill="#181818" transform="translate(487,80)"/>
<path d="M0 0 C0.33 0 0.66 0 1 0 C1.81903217 10.85217629 -2.66256868 19.44446771 -9 28 C-10.32 27.67 -11.64 27.34 -13 27 C-12.113125 26.113125 -11.22625 25.22625 -10.3125 24.3125 C-4.55231796 17.62633124 -2.15654309 8.43012299 0 0 Z " fill="#282828" transform="translate(480,161)"/>
<path d="M0 0 C3.75445638 3.36938393 5.07704159 5.15275915 6 10 C6.70922146 11.74484597 7.42110213 13.48896611 8.17138672 15.21655273 C11.18625309 22.16033895 12.96811133 28.33077592 13 36 C10.99213177 32.41127623 9.94959566 28.61144686 8.8125 24.6875 C6.33051161 16.38790021 2.85852489 8.73928911 -1 1 C-0.67 0.67 -0.34 0.34 0 0 Z " fill="#C7C7C7" transform="translate(514,115)"/>
<path d="M0 0 C0.5878125 0.20496094 1.175625 0.40992188 1.78125 0.62109375 C12.92075981 3.9661477 24.45667451 3.74656212 36 4 C36 4.33 36 4.66 36 5 C31.64624473 5.19800001 27.29199369 5.38152823 22.9375 5.5625 C21.70837891 5.61857422 20.47925781 5.67464844 19.21289062 5.73242188 C13.3327081 5.9701651 7.78396925 6.16023157 2 5 C1.34 3.35 0.68 1.7 0 0 Z " fill="#9F9F9F" transform="translate(403,250)"/>
<path d="M0 0 C-1.16015625 0.52787109 -1.16015625 0.52787109 -2.34375 1.06640625 C-10.61076766 4.98505447 -16.60850437 9.56965029 -23 16 C-23.66 15.34 -24.32 14.68 -25 14 C-19.16961074 7.58331461 -9.49068083 -2.9453837 0 0 Z " fill="#C0BFC0" transform="translate(414,119)"/>
<path d="M0 0 C3.21484375 -0.34375 3.21484375 -0.34375 6 0 C5.67 0.99 5.34 1.98 5 3 C5 2.34 5 1.68 5 1 C0.87931844 2.37356052 -0.28905223 5.20631653 -2.4375 8.75 C-5.08280693 13.0502966 -7.74718028 17.11736325 -11 21 C-11.99 20.67 -12.98 20.34 -14 20 C-13.36384766 19.34257812 -13.36384766 19.34257812 -12.71484375 18.671875 C-8.06464125 13.64352417 -4.91549799 8.47811067 -1.87109375 2.34375 C-1.25363281 1.5703125 -0.63617187 0.796875 0 0 Z " fill="#C6C6C6" transform="translate(518,201)"/>
<path d="M0 0 C1.52335575 0.25626545 3.04390004 0.52941186 4.5625 0.8125 C6.72897556 1.16783381 8.89564956 1.52195943 11.0625 1.875 C12.89610601 2.18589607 14.72953596 2.49784117 16.5625 2.8125 C16.5625 3.1425 16.5625 3.4725 16.5625 3.8125 C8.5932874 5.80480315 1.41586885 4.61491252 -6.4375 2.8125 C-3.8671875 -0.2109375 -3.8671875 -0.2109375 0 0 Z " fill="#D8D8D8" transform="translate(506.4375,196.1875)"/>
<path d="M0 0 C1.32 0.33 2.64 0.66 4 1 C3.40703125 1.53109375 2.8140625 2.0621875 2.203125 2.609375 C-0.29090034 5.31565781 -1.6650307 7.93597328 -3.25 11.25 C-3.77078125 12.32765625 -4.2915625 13.4053125 -4.828125 14.515625 C-5.21484375 15.33546875 -5.6015625 16.1553125 -6 17 C-9 17 -9 17 -12 15 C-12 14.34 -12 13.68 -12 13 C-9.525 13.495 -9.525 13.495 -7 14 C-6.773125 13.360625 -6.54625 12.72125 -6.3125 12.0625 C-4.51434174 7.86679739 -2.26095979 3.96099444 0 0 Z " fill="#CECECE" transform="translate(485,79)"/>
<path d="M0 0 C-1 3 -1 3 -2.85546875 4.16796875 C-7.40359654 6.15634622 -10.92693038 7.52031483 -16 7 C-13.60457399 3.40686098 -11.94425604 2.8618354 -8 1.25 C-6.9275 0.80140625 -5.855 0.3528125 -4.75 -0.109375 C-2 -1 -2 -1 0 0 Z " fill="#181818" transform="translate(478,246)"/>
<path d="M0 0 C0.33 0 0.66 0 1 0 C0.979375 0.78375 0.95875 1.5675 0.9375 2.375 C0.81315937 4.98114961 0.81315937 4.98114961 2 7 C-4.5705166 7.24794402 -10.56971459 6.32388229 -17 5 C-17 4.67 -17 4.34 -17 4 C-11.65097076 3.40801257 -6.39115154 2.85812759 -1 3 C-0.67 2.01 -0.34 1.02 0 0 Z " fill="#CBCBCB" transform="translate(526,177)"/>
<path d="M0 0 C0.33 0 0.66 0 1 0 C1 7.26 1 14.52 1 22 C-0.32 22 -1.64 22 -3 22 C-2.01 14.74 -1.02 7.48 0 0 Z " fill="#010101" transform="translate(530,160)"/>
<path d="M0 0 C0.99 0.33 1.98 0.66 3 1 C2.39005934 4.06325753 1.42271989 6.20050634 -0.375 8.75 C-0.79523438 9.36359375 -1.21546875 9.9771875 -1.6484375 10.609375 C-2.09445312 11.06828125 -2.54046875 11.5271875 -3 12 C-3.99 12 -4.98 12 -6 12 C-5.36934243 8.78147169 -4.21979305 6.49198931 -2.4375 3.75 C-1.98246094 3.04359375 -1.52742188 2.3371875 -1.05859375 1.609375 C-0.53458984 0.81273437 -0.53458984 0.81273437 0 0 Z " fill="#1F1F20" transform="translate(388,231)"/>
<path d="M0 0 C0 1.65 0 3.3 0 5 C-5.28 5.66 -10.56 6.32 -16 7 C-12.74658227 4.55993671 -10.54858018 3.24355138 -6.875 1.8125 C-5.57175781 1.29623047 -5.57175781 1.29623047 -4.2421875 0.76953125 C-2 0 -2 0 0 0 Z " fill="#C7C7C7" transform="translate(469,124)"/>
<path d="M0 0 C3.93235904 4.49412462 8 9.84759838 8 16 C5 15 5 15 3.359375 12.3828125 C2.82828125 11.30773437 2.2971875 10.23265625 1.75 9.125 C1.20859375 8.05507812 0.6671875 6.98515625 0.109375 5.8828125 C-1 3 -1 3 0 0 Z " fill="#C2C3C3" transform="translate(499,112)"/>
<path d="M0 0 C0.33 0 0.66 0 1 0 C1.33 6.93 1.66 13.86 2 21 C-0.9924361 18.0075639 -0.96979683 15.77728752 -1.1328125 11.58203125 C-1.13023437 10.33808594 -1.12765625 9.09414062 -1.125 7.8125 C-1.12757813 6.56082031 -1.13015625 5.30914062 -1.1328125 4.01953125 C-1 1 -1 1 0 0 Z " fill="#111111" transform="translate(348,157)"/>
<path d="M0 0 C1.258125 -0.020625 2.51625 -0.04125 3.8125 -0.0625 C4.52019531 -0.07410156 5.22789062 -0.08570312 5.95703125 -0.09765625 C8 0 8 0 11 1 C11 1.66 11 2.32 11 3 C1.43 3 -8.14 3 -18 3 C-18 2.67 -18 2.34 -18 2 C-12.06 1.67 -6.12 1.34 0 1 C0 0.67 0 0.34 0 0 Z " fill="#8E8E8E" transform="translate(334,93)"/>
<path d="M0 0 C2.3872206 3.58083091 3.1257166 5.1425103 3.09765625 9.3515625 C3.09443359 10.20234375 3.09121094 11.053125 3.08789062 11.9296875 C3.07951172 12.81914062 3.07113281 13.70859375 3.0625 14.625 C3.05798828 15.5221875 3.05347656 16.419375 3.04882812 17.34375 C3.03702591 19.56256648 3.02056155 21.78125018 3 24 C2.67 24 2.34 24 2 24 C1.67 21.36 1.34 18.72 1 16 C0.67 16 0.34 16 0 16 C0 10.72 0 5.44 0 0 Z " fill="#3A3939" transform="translate(529,151)"/>
<path d="M0 0 C0.66 0.33 1.32 0.66 2 1 C1.41992188 1.6290625 0.83984375 2.258125 0.2421875 2.90625 C-4.47701509 8.07712544 -8.93754411 13.29663055 -13 19 C-13.33 18.34 -13.66 17.68 -14 17 C-9.70351846 10.87151618 -5.50510597 5.09222302 0 0 Z " fill="#D2D2D2" transform="translate(371,100)"/>
<path d="M0 0 C3.84160316 5.76240474 4.23538321 11.29157865 4 18 C2.17124596 15.25686894 1.27962972 13.22925051 0.3125 10.125 C-0.09548828 8.86042969 -0.09548828 8.86042969 -0.51171875 7.5703125 C-1.05258938 4.72316953 -0.7420711 2.77903135 0 0 Z " fill="#BBBBBB" transform="translate(507,128)"/>
<path d="M0 0 C0.66 0.33 1.32 0.66 2 1 C-2.95 5.95 -7.9 10.9 -13 16 C-13.66 15.67 -14.32 15.34 -15 15 C-10.39863498 9.46398272 -5.53601728 4.60136502 0 0 Z " fill="#212121" transform="translate(365,83)"/>
<path d="M0 0 C0.66 0 1.32 0 2 0 C0 5 -2 10 -4 15 C-4.66 14.67 -5.32 14.34 -6 14 C-5.57316761 12.41375765 -5.13303842 10.8310902 -4.6875 9.25 C-4.32205078 7.92742187 -4.32205078 7.92742187 -3.94921875 6.578125 C-2.96807895 3.91330085 -1.906176 2.09728362 0 0 Z " fill="#DFDFE0" transform="translate(389,134)"/>
<path d="M0 0 C0.66 0.66 1.32 1.32 2 2 C1.65066406 2.67546875 1.30132812 3.3509375 0.94140625 4.046875 C0.48636719 4.93890625 0.03132813 5.8309375 -0.4375 6.75 C-0.88996094 7.63171875 -1.34242188 8.5134375 -1.80859375 9.421875 C-2.83455398 11.64198566 -3.51508603 13.61444619 -4 16 C-4.66 16 -5.32 16 -6 16 C-5.59683075 9.68368172 -3.28767869 5.35006016 0 0 Z " fill="#BDBDBE" transform="translate(356,118)"/>
<path d="M0 0 C0 3 0 3 -1 6 C-3.1796875 7.421875 -3.1796875 7.421875 -5.875 8.75 C-6.75929688 9.19859375 -7.64359375 9.6471875 -8.5546875 10.109375 C-11 11 -11 11 -14 10 C-12.98679687 9.41992188 -12.98679687 9.41992188 -11.953125 8.828125 C-11.06109375 8.30734375 -10.1690625 7.7865625 -9.25 7.25 C-8.36828125 6.73953125 -7.4865625 6.2290625 -6.578125 5.703125 C-4.03462657 4.02287452 -2.07097075 2.22580968 0 0 Z " fill="#464546" transform="translate(451,177)"/>
<path d="M0 0 C0.33 0 0.66 0 1 0 C1.33266291 6.20970773 0.45029331 10.28264895 -2 16 C-2.66 15.67 -3.32 15.34 -4 15 C-3.52396226 12.87429688 -3.04407402 10.74945573 -2.5625 8.625 C-2.29566406 7.44164062 -2.02882813 6.25828125 -1.75390625 5.0390625 C-1 2 -1 2 0 0 Z " fill="#737373" transform="translate(480,161)"/>
<path d="M0 0 C4.8527811 -0.32351874 9.21996348 0.0439927 14 1 C12 3 12 3 8.7421875 3.1953125 C7.46601563 3.17210937 6.18984375 3.14890625 4.875 3.125 C2.95300781 3.09792969 2.95300781 3.09792969 0.9921875 3.0703125 C-0.48894531 3.03550781 -0.48894531 3.03550781 -2 3 C-1.34 2.01 -0.68 1.02 0 0 Z " fill="#717171" transform="translate(416,204)"/>
<path d="M0 0 C0.99 0.33 1.98 0.66 3 1 C0.7360039 3.46717524 -1.59060244 5.10134139 -4.5 6.75 C-5.66015625 7.42289063 -5.66015625 7.42289063 -6.84375 8.109375 C-9 9 -9 9 -12 8 C-11.21753906 7.50628906 -10.43507813 7.01257813 -9.62890625 6.50390625 C-8.61699219 5.86324219 -7.60507812 5.22257813 -6.5625 4.5625 C-5.55316406 3.92441406 -4.54382813 3.28632813 -3.50390625 2.62890625 C-1.15446165 1.22350458 -1.15446165 1.22350458 0 0 Z " fill="#B3B3B4" transform="translate(459,192)"/>
<path d="M0 0 C0 0.33 0 0.66 0 1 C-1.60256108 1.50512244 -3.20711792 2.00391627 -4.8125 2.5 C-6.15248047 2.91765625 -6.15248047 2.91765625 -7.51953125 3.34375 C-10 4 -10 4 -13 4 C-12.67 3.34 -12.34 2.68 -12 2 C-12.66 1.67 -13.32 1.34 -14 1 C-8.80451575 -1.20808081 -5.41735797 -0.93402724 0 0 Z " fill="#2D2C2C" transform="translate(411,84)"/>
<path d="M0 0 C0.66 0.99 1.32 1.98 2 3 C1.73445313 3.51949219 1.46890625 4.03898438 1.1953125 4.57421875 C-0.70698097 8.33020694 -2.51959705 12.05225879 -4 16 C-4.33 16 -4.66 16 -5 16 C-4.55643705 9.79011871 -3.08467498 5.39459439 0 0 Z " fill="#595959" transform="translate(387,132)"/>
<path d="M0 0 C5.86448454 0.2555331 9.65757571 0.65757571 14 5 C11.26980214 6.06528748 10.20701188 6.07998186 7.421875 5.00390625 C6.54015625 4.52824219 5.6584375 4.05257812 4.75 3.5625 C3.85796875 3.08941406 2.9659375 2.61632812 2.046875 2.12890625 C1.37140625 1.75636719 0.6959375 1.38382812 0 1 C0 0.67 0 0.34 0 0 Z " fill="#B2B2B2" transform="translate(461,87)"/>
<path d="M0 0 C-0.33 0.33 -0.66 0.66 -1 1 C1.64 1.33 4.28 1.66 7 2 C7 2.33 7 2.66 7 3 C1.72 3 -3.56 3 -9 3 C-8 1 -8 1 -5.0625 -0.1875 C-2 -1 -2 -1 0 0 Z " fill="#B4B4B4" transform="translate(422,190)"/>
<path d="M0 0 C9.41002278 0.96355353 9.41002278 0.96355353 14 2 C13.67 2.99 13.34 3.98 13 5 C11.20620902 4.55005243 9.41501072 4.08975857 7.625 3.625 C6.62726562 3.36976562 5.62953125 3.11453125 4.6015625 2.8515625 C2 2 2 2 0 0 Z " fill="#494948" transform="translate(509,99)"/>
<path d="M0 0 C0.66 0 1.32 0 2 0 C2.68359375 1.703125 2.68359375 1.703125 3 4 C1.78515625 6.359375 1.78515625 6.359375 0.0625 8.75 C-0.50339844 9.54921875 -1.06929688 10.3484375 -1.65234375 11.171875 C-2.09707031 11.77515625 -2.54179687 12.3784375 -3 13 C-3.99 12.34 -4.98 11.68 -6 11 C-5.34 11 -4.68 11 -4 11 C-3.71125 10.278125 -3.4225 9.55625 -3.125 8.8125 C-2.38217835 6.95544587 -1.63230677 5.10119434 -0.875 3.25 C0.06040771 1.24702439 0.06040771 1.24702439 0 0 Z " fill="#BFBFBF" transform="translate(385,229)"/>
<path d="M0 0 C4.13621084 3.3810038 7.81316569 6.66590534 11 11 C8 11 8 11 5 9 C3.09535753 6.10494345 1.53699949 3.10038525 0 0 Z " fill="#B3B3B3" transform="translate(367,212)"/>
<path d="M0 0 C-1 2 -1 2 -3.06640625 2.8515625 C-4.30197266 3.23441406 -4.30197266 3.23441406 -5.5625 3.625 C-6.38878906 3.88539062 -7.21507812 4.14578125 -8.06640625 4.4140625 C-8.70449219 4.60742188 -9.34257812 4.80078125 -10 5 C-10.66 4.01 -11.32 3.02 -12 2 C-10.75579353 1.4654744 -9.50429064 0.94791389 -8.25 0.4375 C-7.55390625 0.14746094 -6.8578125 -0.14257812 -6.140625 -0.44140625 C-3.69987216 -1.07831803 -2.3596345 -0.80248831 0 0 Z " fill="#BDBDBE" transform="translate(458,122)"/>
<path d="M0 0 C1.75763672 0.45246094 1.75763672 0.45246094 3.55078125 0.9140625 C4.73027344 1.21054688 5.90976562 1.50703125 7.125 1.8125 C8.02863281 2.05226562 8.93226563 2.29203125 9.86328125 2.5390625 C9.86328125 2.8690625 9.86328125 3.1990625 9.86328125 3.5390625 C4.23046526 3.7787568 -0.68210706 2.92436071 -6.13671875 1.5390625 C-3.13671875 -0.4609375 -3.13671875 -0.4609375 0 0 Z " fill="#EEEEEE" transform="translate(410.13671875,202.4609375)"/>
<path d="M0 0 C0.33 0.66 0.66 1.32 1 2 C-4.29230769 5.07692308 -4.29230769 5.07692308 -7.875 4.6875 C-8.57625 4.460625 -9.2775 4.23375 -10 4 C-10 3.34 -10 2.68 -10 2 C-6.7 1.34 -3.4 0.68 0 0 Z " fill="#D9D9D9" transform="translate(443,186)"/>
<path d="M0 0 C0.515625 0.37125 1.03125 0.7425 1.5625 1.125 C-1.70295761 3.00891785 -4.71861761 3.61787967 -8.4375 4.125 C-8.7675 3.135 -9.0975 2.145 -9.4375 1.125 C-3.0375 -1.09038462 -3.0375 -1.09038462 0 0 Z " fill="#2E2E2E" transform="translate(463.4375,251.875)"/>
<path d="M0 0 C0.66 0.33 1.32 0.66 2 1 C1 4 1 4 -0.875 5.25 C-3 6 -3 6 -6 5 C-2.25 1.125 -2.25 1.125 0 0 Z " fill="#111111" transform="translate(482,242)"/>
<path d="M0 0 C0.33 0.99 0.66 1.98 1 3 C-0.25 5.1875 -0.25 5.1875 -2 7 C-2.99 7 -3.98 7 -5 7 C-4.60196439 4.11424181 -4.20990931 3.17810487 -1.9375 1.25 C-1.298125 0.8375 -0.65875 0.425 0 0 Z " fill="#181818" transform="translate(387,236)"/>
<path d="M0 0 C2.97851562 0.53710938 2.97851562 0.53710938 5.95703125 1.07421875 C4.96703125 2.55921875 4.96703125 2.55921875 3.95703125 4.07421875 C0.98703125 3.74421875 -1.98296875 3.41421875 -5.04296875 3.07421875 C-2.04296875 0.07421875 -2.04296875 0.07421875 0 0 Z " fill="#B7B7B7" transform="translate(505.04296875,195.92578125)"/>
<path d="M0 0 C1.80125336 2.70188004 3.00243753 4.93057703 4 8 C3.67 8.99 3.34 9.98 3 11 C-1.06153846 4.6 -1.06153846 4.6 -0.75 1.5625 C-0.5025 1.046875 -0.255 0.53125 0 0 Z " fill="#3C3C3C" transform="translate(354,188)"/>
<path d="M0 0 C0.99 0.33 1.98 0.66 3 1 C3 2.98 3 4.96 3 7 C1.68 7 0.36 7 -1 7 C-0.67 4.69 -0.34 2.38 0 0 Z " fill="#2E2E2E" transform="translate(528,175)"/>
<path d="M0 0 C2.97 0.33 5.94 0.66 9 1 C8.67 1.99 8.34 2.98 8 4 C5.07120629 3.37240135 2.63904371 2.41377341 0 1 C0 0.67 0 0.34 0 0 Z " fill="#1D1D1D" transform="translate(521,102)"/>
<path d="M0 0 C-1 3 -1 3 -2.875 4.25 C-5 5 -5 5 -8 4 C-5.52914451 0.29371676 -4.37054922 0 0 0 Z " fill="#0D0D0D" transform="translate(399,86)"/>
<path d="M0 0 C0.33 0 0.66 0 1 0 C1.33 3.63 1.66 7.26 2 11 C1.34 11 0.68 11 0 11 C-0.33 11.66 -0.66 12.32 -1 13 C-1.33 11.02 -1.66 9.04 -2 7 C-1.67 7 -1.34 7 -1 7 C-0.67 4.69 -0.34 2.38 0 0 Z " fill="#CACACA" transform="translate(354,174)"/>
<path d="M0 0 C0.33 0 0.66 0 1 0 C1 2.31 1 4.62 1 7 C0.01 7.33 -0.98 7.66 -2 8 C-2.125 5.125 -2.125 5.125 -2 2 C-1.34 1.34 -0.68 0.68 0 0 Z " fill="#0D0D0D" transform="translate(351,138)"/>
<path d="M0 0 C1.65 1.65 3.3 3.3 5 5 C4.01 5.99 3.02 6.98 2 8 C1.01 5.69 0.02 3.38 -1 1 C-0.67 0.67 -0.34 0.34 0 0 Z " fill="#C0C0C1" transform="translate(514,115)"/>
<path d="M0 0 C1.32 0.33 2.64 0.66 4 1 C3.401875 1.5775 2.80375 2.155 2.1875 2.75 C0.2517316 4.74107607 -1.38909283 6.74472997 -3 9 C-3.33 8.34 -3.66 7.68 -4 7 C-3.22265625 5.2734375 -3.22265625 5.2734375 -2.0625 3.375 C-1.381875 2.26125 -0.70125 1.1475 0 0 Z " fill="#B9B9BA" transform="translate(485,79)"/>
<path d="M0 0 C0.66 0.66 1.32 1.32 2 2 C0.35 3.98 -1.3 5.96 -3 8 C-3.99 7.67 -4.98 7.34 -6 7 C-4.02 4.69 -2.04 2.38 0 0 Z " fill="#B9B9B9" transform="translate(510,214)"/>
<path d="M0 0 C0.66 0.33 1.32 0.66 2 1 C-0.64 3.64 -3.28 6.28 -6 9 C-6 6 -6 6 -3.5625 3.375 C-2.716875 2.59125 -1.87125 1.8075 -1 1 C-0.67 0.67 -0.34 0.34 0 0 Z " fill="#D1D1D1" transform="translate(431,125)"/>
<path d="M0 0 C-2.57213134 1.61949011 -3.67669159 2.04408751 -6.75 1.625 C-7.4925 1.41875 -8.235 1.2125 -9 1 C-5.64919071 -1.10976881 -3.77897651 -1.0497157 0 0 Z " fill="#AEAEAE" transform="translate(454,253)"/>
<path d="M0 0 C0.66 0.33 1.32 0.66 2 1 C1.67 1.99 1.34 2.98 1 4 C-1.5625 5.1875 -1.5625 5.1875 -4 6 C-4 4.68 -4 3.36 -4 2 C-2.125 0.9375 -2.125 0.9375 0 0 Z " fill="#292929" transform="translate(476,245)"/>
<path d="M0 0 C0.33 0.99 0.66 1.98 1 3 C-0.65 4.32 -2.3 5.64 -4 7 C-4.66 6.67 -5.32 6.34 -6 6 C-4.02 4.02 -2.04 2.04 0 0 Z " fill="#171718" transform="translate(456,174)"/>
<path d="M0 0 C0.99 0.33 1.98 0.66 3 1 C-2.2734375 4.22265625 -2.2734375 4.22265625 -4 5 C-4.66 4.67 -5.32 4.34 -6 4 C-3.1875 1.9375 -3.1875 1.9375 0 0 Z " fill="#D0D0D1" transform="translate(391,86)"/>
</svg>
